<svg width="82" height="89" viewBox="0 0 82 89" fill="none" xmlns="http://www.w3.org/2000/svg">
<g filter="url(#filter0_d_1_706)">
<path fill-rule="evenodd" clip-rule="evenodd" d="M41 70C53.1503 70 63 60.1503 63 48C63 35.8497 53.1503 26 41 26C28.8497 26 19 35.8497 19 48C19 60.1503 28.8497 70 41 70Z" fill="black" fill-opacity="0.01"/>
</g>
<g filter="url(#filter1_d_1_706)">
<path fill-rule="evenodd" clip-rule="evenodd" d="M41 70C57.5685 70 71 56.5685 71 40C71 23.4315 57.5685 10 41 10C24.4315 10 11 23.4315 11 40C11 56.5685 24.4315 70 41 70Z" fill="#2196F3"/>
<path d="M69 40C69 55.464 56.464 68 41 68C25.536 68 13 55.464 13 40C13 24.536 25.536 12 41 12C56.464 12 69 24.536 69 40Z" stroke="#42A5F5" stroke-width="4"/>
</g>
<mask id="mask0_1_706" style="mask-type:luminance" maskUnits="userSpaceOnUse" x="11" y="10" width="60" height="60">
<path fill-rule="evenodd" clip-rule="evenodd" d="M41 70C57.5685 70 71 56.5685 71 40C71 23.4315 57.5685 10 41 10C24.4315 10 11 23.4315 11 40C11 56.5685 24.4315 70 41 70Z" fill="white"/>
</mask>
<g mask="url(#mask0_1_706)">
<path d="M13.714 32.875H67.536" stroke="#42A5F5" stroke-width="4" stroke-linecap="square"/>
<path d="M13.714 48.625H67.536" stroke="#42A5F5" stroke-width="4" stroke-linecap="square"/>
<path d="M40.25 14.5C40.25 14.5 30.2878 26.0775 30.5035 40.75C30.7191 55.4225 40.25 65.5 40.25 65.5" stroke="#42A5F5" stroke-width="4" stroke-linecap="round" stroke-linejoin="round"/>
<path d="M41 14.5C41 14.5 50.9622 26.0775 50.7465 40.75C50.5309 55.4225 41 65.5 41 65.5" stroke="#42A5F5" stroke-width="4" stroke-linecap="round" stroke-linejoin="round"/>
</g>
<defs>
<filter id="filter0_d_1_706" x="8" y="23" width="66" height="66" filterUnits="userSpaceOnUse" color-interpolation-filters="sRGB">
<feFlood flood-opacity="0" result="BackgroundImageFix"/>
<feColorMatrix in="SourceAlpha" type="matrix" values="0 0 0 0 0 0 0 0 0 0 0 0 0 0 0 0 0 0 127 0" result="hardAlpha"/>
<feOffset dy="8"/>
<feGaussianBlur stdDeviation="5.5"/>
<feColorMatrix type="matrix" values="0 0 0 0 0.215686 0 0 0 0 0.407843 0 0 0 0 0.556863 0 0 0 0.25 0"/>
<feBlend mode="normal" in2="BackgroundImageFix" result="effect1_dropShadow_1_706"/>
<feBlend mode="normal" in="SourceGraphic" in2="effect1_dropShadow_1_706" result="shape"/>
</filter>
<filter id="filter1_d_1_706" x="0" y="0" width="82" height="82" filterUnits="userSpaceOnUse" color-interpolation-filters="sRGB">
<feFlood flood-opacity="0" result="BackgroundImageFix"/>
<feColorMatrix in="SourceAlpha" type="matrix" values="0 0 0 0 0 0 0 0 0 0 0 0 0 0 0 0 0 0 127 0" result="hardAlpha"/>
<feOffset dy="1"/>
<feGaussianBlur stdDeviation="5.5"/>
<feColorMatrix type="matrix" values="0 0 0 0 0.215686 0 0 0 0 0.407843 0 0 0 0 0.556863 0 0 0 0.3 0"/>
<feBlend mode="normal" in2="BackgroundImageFix" result="effect1_dropShadow_1_706"/>
<feBlend mode="normal" in="SourceGraphic" in2="effect1_dropShadow_1_706" result="shape"/>
</filter>
</defs>
</svg>
